<svg id="outputsvg" xmlns="http://www.w3.org/2000/svg" width="914" height="1284" viewBox="0 0 9140 12840"><g id="l7LLNH2uehzfnUhgpqraNgF" fill="rgb(44,66,81)"><g><path id="p7QRVthCx" d="M6628 12675 c-11 -12 -319 -27 -703 -35 -220 -5 -449 -14 -510 -20 -60 -5 -173 -15 -250 -20 -77 -6 -201 -15 -275 -21 -74 -6 -333 -15 -575 -19 -242 -4 -496 -13 -565 -19 -69 -6 -219 -16 -335 -22 -115 -6 -246 -15 -290 -20 -44 -5 -264 -14 -490 -19 -225 -5 -455 -14 -510 -20 -55 -5 -215 -15 -355 -20 -140 -5 -300 -14 -355 -20 -55 -6 -271 -14 -480 -19 -364 -9 -529 -21 -547 -39 -13 -13 -4 -6918 10 -7032 14 -120 25 -219 67 -625 15 -141 20 -183 46 -345 19 -119 70 -384 89 -465 10 -44 28 -123 40 -175 12 -52 30 -124 40 -160 10 -36 28 -103 40 -150 22 -86 55 -204 70 -250 4 -14 13 -43 19 -65 6 -22 25 -85 42 -140 17 -55 35 -113 40 -130 5 -16 27 -88 50 -160 22 -71 50 -159 61 -195 11 -36 24 -74 28 -85 7 -19 41 -130 90 -295 37 -128 43 -144 51 -165 5 -11 16 -40 24 -65 9 -25 34 -77 55 -117 33 -60 40 -82 40 -130 1 -51 4 -60 27 -77 24 -18 33 -18 152 -7 91 8 962 11 3166 11 3243 0 3108 -2 3211 47 33 15 41 25 50 63 10 41 9 50 -16 100 -67 134 -128 296 -190 500 -43 143 -129 419 -140 450 -5 14 -27 84 -49 155 -22 72 -58 189 -80 260 -59 191 -115 393 -150 540 -45 185 -48 198 -71 315 -11 58 -25 130 -31 160 -23 117 -38 204 -78 448 -6 31 -15 93 -21 137 -6 44 -15 109 -20 145 -23 165 -45 413 -60 666 -11 186 -12 5981 -1 6654 l6 385 25 3 c115 13 160 24 160 42 0 19 -19 28 -123 55 -41 11 -110 15 -241 15 -100 0 -185 -2 -188 -5z m-2218 -4434 c0 -4 17 -11 37 -14 106 -18 243 -128 298 -241 15 -31 31 -56 35 -56 4 0 7 -19 7 -42 0 -23 5 -44 12 -46 16 -5 15 -239 -1 -244 -6 -2 -11 -24 -10 -53 0 -30 -5 -54 -15 -63 -8 -8 -13 -25 -10 -38 2 -14 -2 -25 -11 -29 -9 -3 -13 -14 -10 -30 3 -14 2 -25 -2 -25 -4 0 -31 -48 -59 -107 -81 -166 -170 -294 -286 -408 -109 -108 -260 -222 -345 -262 -8 -4 -21 -13 -28 -20 -8 -7 -18 -11 -23 -8 -5 4 -9 1 -9 -4 0 -6 -9 -11 -20 -11 -11 0 -20 -4 -20 -10 0 -5 -9 -10 -20 -10 -11 0 -20 -5 -20 -11 0 -5 -4 -7 -10 -4 -5 3 -10 1 -10 -6 0 -7 -3 -9 -6 -6 -4 3 -16 1 -28 -5 -11 -6 -36 -13 -55 -14 -19 -2 -39 -8 -45 -14 -14 -14 -253 -13 -258 1 -2 6 -25 11 -51 11 -26 0 -47 4 -47 8 0 10 -146 59 -189 64 -33 4 -93 34 -104 52 -4 8 -17 14 -27 14 -11 0 -20 5 -20 10 0 6 -7 10 -15 10 -8 0 -24 9 -35 20 -11 11 -24 20 -29 20 -5 0 -29 20 -53 45 -24 24 -48 45 -54 45 -22 0 -198 202 -305 349 -103 143 -189 421 -189 613 0 86 28 219 57 277 38 73 135 148 241 184 42 15 85 27 95 27 9 0 17 5 17 10 0 13 187 13 192 0 2 -6 43 -11 96 -11 50 0 92 -5 92 -10 0 -5 45 -9 100 -9 60 0 100 -4 100 -10 0 -6 68 -10 185 -10 103 0 185 4 185 9 0 5 34 9 76 9 43 1 80 4 83 9 3 4 26 9 51 11 24 2 47 7 50 11 3 5 43 9 90 9 50 1 86 5 88 11 4 13 232 15 232 2z m697 -1160 c37 -18 85 -53 120 -88 95 -94 134 -156 169 -265 10 -32 21 -58 26 -58 10 0 11 -367 0 -372 -4 -1 -24 -37 -44 -79 -43 -92 -89 -140 -172 -179 -71 -34 -166 -41 -199 -15 -11 7 -25 11 -32 9 -7 -3 -15 2 -18 10 -4 9 -15 16 -26 16 -10 0 -21 7 -25 15 -3 8 -11 15 -17 15 -31 0 -209 186 -209 219 0 6 -4 11 -10 11 -5 0 -10 7 -10 15 0 8 -4 15 -10 15 -5 0 -10 5 -10 11 0 6 -6 17 -14 25 -8 7 -24 45 -36 84 -12 38 -26 70 -31 70 -5 0 -9 64 -9 145 0 86 4 145 10 145 5 0 14 18 20 40 17 63 104 149 200 198 78 40 85 42 173 42 81 0 99 -4 154 -29z m-2797 -41 c0 -5 12 -10 28 -10 40 0 140 -51 194 -99 25 -22 51 -41 57 -41 5 0 25 -30 43 -67 33 -67 33 -69 33 -213 0 -126 -3 -154 -23 -210 -74 -206 -283 -416 -426 -426 -21 -1 -43 -7 -49 -13 -6 -6 -43 -11 -82 -11 l-71 0 -51 53 c-59 60 -112 152 -144 252 -33 100 -32 287 0 395 60 197 160 329 278 366 35 10 63 22 63 27 0 4 34 7 75 7 43 0 75 -4 75 -10z m860 -640 c0 -5 7 -10 15 -10 55 0 206 -100 258 -171 17 -24 35 -46 39 -47 5 -2 6 -8 2 -13 -3 -5 2 -9 12 -9 11 0 15 -6 11 -19 -3 -12 1 -22 9 -25 11 -4 14 -40 14 -181 0 -151 -2 -176 -16 -182 -10 -4 -12 -8 -5 -13 17 -10 2 -70 -18 -71 -10 0 -11 -2 -3 -6 17 -7 15 -20 -8 -43 -11 -11 -15 -20 -10 -20 6 0 4 -13 -5 -30 -9 -16 -20 -30 -26 -30 -6 0 -7 -5 -4 -11 4 -6 -7 -24 -24 -41 -17 -17 -31 -36 -31 -43 0 -20 -101 -114 -160 -149 -54 -32 -59 -33 -175 -33 -102 -1 -123 2 -146 18 -15 10 -31 19 -35 19 -13 0 -64 53 -64 66 0 6 -7 17 -15 24 -20 16 -74 112 -86 152 -32 101 -38 152 -39 294 0 243 33 336 163 461 62 60 112 93 142 93 9 0 18 7 21 15 5 12 25 15 95 15 53 0 89 -4 89 -10z m1110 2 c0 -4 17 -14 38 -21 61 -22 101 -59 161 -150 30 -47 56 -88 56 -91 4 -30 38 -120 45 -120 6 0 10 -25 10 -55 0 -30 5 -55 10 -55 15 0 13 -187 -1 -192 -7 -2 -12 -24 -12 -48 0 -28 -5 -49 -14 -56 -9 -5 -13 -19 -11 -30 2 -10 -2 -24 -10 -29 -7 -6 -14 -20 -15 -33 0 -12 -4 -22 -7 -22 -4 0 -13 -15 -22 -33 -8 -17 -38 -59 -66 -92 -65 -78 -152 -125 -231 -125 -49 0 -61 5 -150 64 -82 54 -124 92 -194 177 -30 35 -107 209 -123 277 -9 39 -21 72 -25 72 -12 0 -11 204 1 216 5 5 11 28 13 49 5 49 46 137 87 187 17 21 59 51 95 69 36 17 65 36 65 40 0 5 68 9 150 9 83 0 150 -4 150 -8z"></path></g></g><g id="l3Ysk82SNs9bHWZYhFjgdF7" fill="rgb(21,47,65)"><g><path id="psrrOFexr" d="M7148 12630 c-2 -6 -44 -16 -93 -23 l-90 -13 -6 -385 c-11 -672 -10 -6527 1 -6713 15 -253 37 -501 60 -666 5 -36 14 -101 20 -145 10 -75 15 -108 40 -255 24 -146 32 -191 60 -335 6 -27 19 -97 30 -155 23 -117 26 -130 71 -315 35 -147 91 -349 150 -540 22 -71 58 -188 80 -260 22 -71 44 -141 49 -155 11 -30 96 -305 140 -450 47 -155 93 -283 137 -385 62 -139 76 -165 89 -165 19 0 80 173 190 540 62 207 156 508 174 560 5 14 27 86 50 160 23 74 45 146 50 160 13 35 83 284 115 405 81 311 175 783 216 1085 35 260 49 383 59 525 5 72 15 189 22 260 10 104 13 783 13 3434 l0 3304 -25 7 c-14 4 -50 15 -80 25 -30 9 -86 25 -125 35 -83 21 -342 106 -367 120 -10 6 -25 10 -33 10 -8 0 -23 4 -33 9 -9 5 -105 37 -212 71 -107 34 -220 70 -250 80 -30 9 -77 24 -105 33 -59 18 -370 133 -384 141 -5 4 -11 2 -13 -4z"></path><path id="p8Ncdy4V4" d="M4130 8240 c-22 -7 -21 -8 13 -9 20 -1 37 4 37 9 0 11 -14 11 -50 0z"></path><path id="pvAvXxhx2" d="M4410 8240 c0 -5 7 -10 15 -10 8 0 15 5 15 10 0 6 -7 10 -15 10 -8 0 -15 -4 -15 -10z"></path><path id="pZsg4USX6" d="M2760 8220 c-12 -8 -11 -10 8 -10 12 0 22 5 22 10 0 13 -11 13 -30 0z"></path><path id="pVY9qKO06" d="M2980 8220 c0 -5 21 -10 48 -9 35 0 42 3 27 9 -28 12 -75 12 -75 0z"></path><path id="psZ40YpmL" d="M3970 8220 c-12 -8 -11 -10 8 -10 12 0 22 5 22 10 0 13 -11 13 -30 0z"></path><path id="p27ExUZLZ" d="M4475 8220 c28 -12 37 -12 30 0 -3 6 -16 10 -28 9 -21 0 -21 -1 -2 -9z"></path><path id="pJbzOOyB2" d="M2635 8181 c-63 -30 -150 -89 -142 -97 3 -3 28 12 56 33 28 21 83 50 123 65 44 16 63 27 48 27 -14 0 -52 -13 -85 -28z"></path><path id="p14P9c3BMl" d="M3170 8200 c0 -5 15 -10 33 -10 24 0 28 3 17 10 -20 13 -50 13 -50 0z"></path><path id="pZbgAIqyn" d="M3850 8200 c-11 -7 -7 -10 18 -10 17 0 32 5 32 10 0 13 -30 13 -50 0z"></path><path id="pWs2OGeM1" d="M3370 8180 c0 -6 24 -10 53 -9 41 1 47 3 27 9 -36 12 -80 12 -80 0z"></path><path id="pFBPh5VEQ" d="M3660 8180 c-31 -7 -29 -8 23 -9 32 0 57 3 57 9 0 11 -27 11 -80 0z"></path><path id="pAr1IHPI8" d="M4651 8113 c18 -20 41 -44 50 -53 9 -9 29 -43 44 -74 15 -31 31 -56 36 -56 11 0 -24 72 -59 120 -37 51 -84 100 -96 100 -5 0 6 -16 25 -37z"></path><path id="pVmUHOzDU" d="M2360 7810 c0 -5 7 -10 15 -10 8 0 15 5 15 10 0 6 -7 10 -15 10 -8 0 -15 -4 -15 -10z"></path><path id="pCCpAQK63" d="M2373 7633 c-18 -7 -16 -43 2 -43 9 0 15 9 15 25 0 14 -1 25 -2 24 -2 0 -9 -3 -15 -6z"></path><path id="p163I70hb1" d="M4766 7474 c-7 -19 -8 -49 -1 -42 7 7 17 58 11 58 -2 0 -7 -7 -10 -16z"></path><path id="pbc1KHg8o" d="M4723 7343 c-3 -10 -8 -22 -10 -28 -3 -5 3 -1 11 9 16 20 21 36 11 36 -3 0 -8 -8 -12 -17z"></path><path id="pJ5s3dbn1" d="M4666 7222 c-68 -138 -163 -271 -271 -377 -109 -108 -260 -222 -345 -262 -8 -4 -21 -13 -28 -20 -8 -7 -18 -11 -23 -8 -5 4 -9 1 -9 -4 0 -6 -9 -11 -20 -11 -11 0 -20 -4 -20 -10 0 -5 -9 -10 -20 -10 -11 0 -20 -5 -20 -11 0 -5 -4 -7 -10 -4 -5 3 -10 1 -10 -6 0 -7 -3 -9 -6 -6 -4 3 -16 1 -28 -5 -11 -6 -35 -13 -54 -14 -43 -4 -59 -14 -40 -25 22 -12 80 7 188 61 183 92 419 270 522 394 69 82 171 238 209 320 44 94 31 92 -15 -2z"></path><path id="pjzZqX9Rf" d="M2490 7210 c-12 -8 -11 -10 5 -10 17 0 17 -2 5 -10 -13 -8 -12 -10 3 -10 18 0 21 8 9 27 -5 8 -13 9 -22 3z"></path><path id="pvb7JEfaV" d="M4855 7118 c-51 -18 -128 -60 -169 -92 -43 -35 -116 -123 -115 -140 0 -6 8 0 17 14 45 67 117 129 193 169 76 39 86 41 172 42 79 1 86 3 47 10 -60 10 -108 9 -145 -3z"></path><path id="p6J2rXjIM" d="M5100 7084 c30 -14 63 -33 72 -41 10 -9 18 -12 18 -7 0 19 -100 74 -133 74 -7 0 13 -12 43 -26z"></path><path id="pFKpNp75x" d="M2071 7019 c-35 -16 -62 -32 -59 -34 2 -3 23 4 46 15 23 11 56 23 72 27 17 3 30 9 30 14 0 15 -21 9 -89 -22z"></path><path id="p19tDmK0Ly" d="M2310 7040 c0 -5 11 -10 25 -10 14 0 25 5 25 10 0 6 -11 10 -25 10 -14 0 -25 -4 -25 -10z"></path><path id="pH7F3FdvD" d="M2425 7001 c33 -15 81 -47 108 -71 26 -23 47 -38 47 -32 0 10 -94 92 -107 92 -4 0 -19 9 -33 20 -14 11 -36 20 -50 20 -18 0 -9 -8 35 -29z"></path><path id="py1wyP3bL" d="M5232 6990 c18 -22 37 -40 43 -40 5 0 -9 18 -30 40 -50 51 -55 51 -13 0z"></path><path id="pvzBPEGsr" d="M2640 6990 c-12 -8 -12 -10 3 -16 21 -8 35 2 21 16 -5 5 -15 6 -24 0z"></path><path id="psSgRiDKM" d="M2680 6940 c-12 -8 -12 -10 3 -16 21 -8 35 2 21 16 -5 5 -15 6 -24 0z"></path><path id="pGuj52TOT" d="M5306 6905 c9 -14 21 -25 27 -25 6 0 0 11 -13 25 -13 14 -25 25 -27 25 -2 0 4 -11 13 -25z"></path><path id="p16Y2mNSl1" d="M2736 6872 c-7 -11 158 -167 202 -192 15 -8 32 -22 38 -30 7 -9 34 -26 60 -39 27 -14 51 -28 54 -31 3 -4 28 -19 57 -34 44 -22 87 -36 246 -83 13 -4 16 -1 11 11 -6 15 -139 63 -193 70 -33 4 -93 34 -104 52 -4 8 -17 14 -27 14 -11 0 -20 5 -20 10 0 6 -7 10 -15 10 -8 0 -24 9 -35 20 -11 11 -24 20 -29 20 -5 0 -29 20 -53 45 -24 24 -47 45 -53 45 -5 0 -37 27 -71 61 -34 34 -64 56 -68 51z"></path><path id="p10NCZ9XDg" d="M4555 6850 c-15 -17 -16 -20 -3 -20 9 0 19 7 22 16 10 25 1 27 -19 4z"></path><path id="pvuktHkOH" d="M4547 6525 c-4 -8 -2 -17 3 -20 5 -3 7 -12 3 -20 -3 -8 0 -15 7 -15 6 0 8 -4 5 -10 -3 -5 -1 -10 5 -10 7 0 10 -7 6 -15 -3 -8 -1 -15 5 -15 6 0 8 -4 5 -9 -3 -5 1 -12 10 -15 8 -3 13 -10 10 -15 -3 -5 1 -12 10 -15 8 -3 13 -10 10 -15 -3 -5 1 -12 10 -15 8 -3 13 -10 10 -15 -3 -5 1 -12 10 -15 9 -4 14 -9 11 -13 -4 -3 5 -14 18 -25 14 -11 23 -23 20 -28 -3 -5 6 -17 20 -28 13 -11 22 -22 19 -24 -7 -8 107 -108 123 -108 7 0 17 -9 23 -20 6 -11 18 -20 26 -20 9 0 22 -7 30 -15 18 -18 62 -30 72 -20 10 9 -27 35 -43 29 -7 -3 -15 2 -18 10 -4 9 -16 16 -27 16 -11 0 -20 5 -20 10 0 6 -8 13 -17 17 -48 17 -213 189 -213 222 0 6 -4 11 -10 11 -5 0 -10 7 -10 15 0 8 -4 15 -10 15 -5 0 -10 5 -10 11 0 6 -6 17 -14 25 -8 7 -24 45 -36 84 -21 69 -33 84 -43 55z"></path><path id="p18OMiAppN" d="M3462 6458 c7 -19 38 -22 38 -4 0 10 -9 16 -21 16 -12 0 -19 -5 -17 -12z"></path><path id="pTqTxTiLl" d="M2935 6385 c-49 -21 -181 -132 -170 -143 2 -3 31 20 63 50 58 55 108 88 136 88 14 0 32 18 25 25 -2 1 -27 -7 -54 -20z"></path><path id="pHXw2Lldj" d="M3170 6400 c0 -5 7 -10 15 -10 55 0 206 -100 258 -171 17 -24 35 -46 39 -47 5 -2 6 -8 2 -13 -3 -5 0 -9 5 -9 16 0 14 7 -18 54 -32 46 -136 146 -152 146 -6 0 -17 7 -25 15 -9 8 -27 17 -42 21 -15 3 -35 9 -44 15 -23 12 -38 12 -38 -1z"></path><path id="pSe9vxiBy" d="M4280 6401 c0 -5 8 -11 18 -14 9 -2 25 -8 35 -12 27 -11 20 11 -8 23 -31 14 -45 15 -45 3z"></path><path id="p1B78uJr4R" d="M3930 6389 c-32 -13 -133 -89 -126 -96 2 -3 22 9 43 26 21 16 59 40 86 51 62 28 60 44 -3 19z"></path><path id="pnd07n9ue" d="M4392 6340 c20 -16 59 -66 87 -110 29 -44 53 -80 56 -80 8 0 -30 68 -71 125 -45 64 -77 95 -96 95 -7 0 4 -13 24 -30z"></path><path id="pP8vXJpo0" d="M5391 6245 c-13 -30 -34 -71 -47 -91 -14 -20 -23 -38 -20 -41 7 -8 58 76 78 131 26 67 17 68 -11 1z"></path><path id="pGRDmNFbE" d="M3784 6265 c-10 -8 -15 -15 -10 -15 6 0 1 -7 -10 -15 -10 -8 -14 -15 -9 -15 6 0 3 -5 -5 -10 -8 -5 -10 -10 -4 -10 6 0 23 18 38 40 29 44 29 47 0 25z"></path><path id="p1H5TetueS" d="M3726 6174 c-15 -39 4 -42 24 -3 8 15 7 19 -4 19 -7 0 -17 -7 -20 -16z"></path><path id="ptn4G1QAS" d="M2466 6125 c-20 -30 -118 -104 -169 -127 -21 -10 -36 -22 -32 -28 4 -6 21 -1 46 13 46 25 200 166 183 167 -7 0 -19 -11 -28 -25z"></path><path id="pWxmctxjR" d="M4549 6090 c8 -27 19 -46 23 -42 9 9 -20 92 -32 92 -4 0 0 -22 9 -50z"></path><path id="p1EoSdHRqy" d="M3700 6069 c0 -24 23 -21 28 4 2 10 -3 17 -12 17 -10 0 -16 -9 -16 -21z"></path><path id="pduBR6UPq" d="M5274 6079 c-3 -6 -31 -22 -61 -35 -56 -25 -67 -51 -14 -33 33 12 112 78 94 79 -6 0 -15 -5 -19 -11z"></path><path id="pNq9LFiRC" d="M3533 5975 c0 -38 2 -53 4 -32 2 20 2 52 0 70 -2 17 -4 1 -4 -38z"></path><path id="p159jChec5" d="M1947 5995 c-4 -9 -1 -18 9 -22 22 -8 30 5 12 23 -14 14 -16 14 -21 -1z"></path><path id="p2gxzJp2P" d="M2192 5972 c-27 -8 -26 -28 1 -24 22 3 56 33 35 31 -7 -1 -23 -4 -36 -7z"></path><path id="pdSiAcAAM" d="M3707 5833 c-12 -12 -7 -23 11 -24 10 0 12 -3 5 -6 -20 -7 -16 -43 5 -43 13 0 14 -2 4 -9 -18 -11 -5 -61 16 -61 12 0 13 -3 5 -11 -15 -15 -5 -39 16 -39 12 0 13 -2 3 -9 -11 -7 -11 -14 3 -42 33 -64 76 -119 93 -119 13 0 14 -2 4 -9 -10 -6 8 -28 66 -82 88 -82 181 -143 209 -137 12 2 -15 25 -82 69 -86 57 -127 95 -198 180 -30 35 -107 209 -123 277 -16 69 -22 80 -37 65z"></path><path id="pX2bnV4Kl" d="M2653 5653 c-18 -7 -16 -23 2 -23 8 0 15 7 15 15 0 8 -1 15 -2 14 -2 0 -9 -3 -15 -6z"></path><path id="pScWIHMRr" d="M4567 5613 c-4 -3 -7 -16 -6 -27 0 -19 1 -19 10 3 10 24 8 36 -4 24z"></path><path id="pMZmPUT9f" d="M4543 5543 c-3 -10 -8 -22 -10 -28 -3 -5 3 -1 11 9 16 20 21 36 11 36 -3 0 -8 -8 -12 -17z"></path><path id="pc54mkpje" d="M4509 5468 c-32 -65 -115 -153 -173 -181 -31 -15 -56 -32 -56 -37 0 -16 13 -12 61 18 73 48 197 194 187 224 -2 5 -11 -5 -19 -24z"></path><path id="pkMHN2S7k" d="M3392 5459 c-19 -30 -8 -34 12 -4 9 14 13 25 9 25 -5 0 -14 -9 -21 -21z"></path><path id="pHlb7bKgo" d="M2760 5380 c-12 -8 -12 -10 3 -16 21 -8 35 2 21 16 -5 5 -15 6 -24 0z"></path><path id="p9VKKrJeP" d="M3304 5349 c-16 -17 -53 -45 -82 -61 -28 -16 -49 -34 -46 -39 3 -5 19 -1 36 8 39 22 147 122 132 123 -5 0 -23 -14 -40 -31z"></path><path id="pWwBKPnoT" d="M2796 5332 c-9 -14 87 -92 114 -92 21 0 5 23 -29 41 -18 10 -44 27 -56 39 -13 12 -25 17 -29 12z"></path><path id="p13vK71gOb" d="M2970 5241 c0 -11 82 -24 103 -15 35 13 15 24 -43 24 -33 0 -60 -4 -60 -9z"></path><path id="patsvTtvJ" d="M7820 1618 c-113 -50 43 -48 -3225 -48 -1934 0 -3083 -4 -3140 -10 l-90 -10 -37 42 -36 41 -4 -164 c-6 -329 -1 -764 11 -824 22 -119 104 -245 195 -303 53 -33 158 -69 241 -82 73 -12 5582 -16 5653 -5 223 36 332 97 416 232 59 96 58 87 66 618 4 270 10 500 15 513 9 28 -4 28 -65 0z"></path></g></g></svg>