<svg xmlns="http://www.w3.org/2000/svg" width="1590" height="1358" viewBox="0 0 15900 13580"><path fill="#152F41" d="M7800 13418c-91-61-264-178-385-261-120-82-229-153-241-156s-80-51-150-106c-255-200-379-299-387-309-17-23 0-337 26-476 14-74 35-204 47-289 12-90 44-243 76-370 133-518 156-615 179-776 20-136 25-210 25-370 0-433-60-705-327-1490-219-646-256-777-269-963-12-167 4-204 130-300 107-81 171-140 242-223 151-176 232-331 284-549 33-135 33-345 0-480-25-105-59-200-93-263-22-42-22-46-27-617-5-575-5-575-30-575-14 0-88 39-165 86-452 277-609 369-629 369-13 0-49-9-82-21-182-63-409-99-629-99-235 0-445 33-651 101-91 31-91 31-205-41-451-285-641-400-657-400-11 0-23 7-26 16s-6 267-6 573c0 558 0 558-34 633-113 244-142 490-86 728 68 286 247 554 495 740 155 117 174 149 161 278-17 166-108 381-345 816-175 319-209 383-291 541-45 88-101 194-123 235-23 41-61 113-86 160-35 64-50 85-63 82-10-2-18 1-18 7 0 19-46 12-65-9-10-11-23-20-29-20s-29-18-51-40c-22-21-44-39-50-40-5 0-28-18-50-40-22-21-44-39-50-40-5 0-28-18-50-40-22-21-45-39-50-40-6 0-29-18-50-40s-44-40-50-40c-5 0-28-18-50-40-22-21-45-39-50-40-6 0-29-18-50-40s-44-40-50-40-29-18-50-40-44-40-50-40-29-18-50-40-44-40-50-40c-5 0-28-18-50-40-22-21-44-39-50-40-5 0-28-18-50-40-22-21-44-39-50-40-5 0-28-18-50-40-22-21-44-39-50-40-20-1-85-71-85-91 0-12-42-71-98-138C1008 7235 363 6052 156 4974c-46-239-58-365-63-659-4-233-1-312 16-470C230 2698 765 1684 1625 969c525-436 1177-741 1845-863 295-54 389-61 780-61 402 1 529 12 839 76 1234 254 2267 1036 2819 2133 70 140 70 140 127 25 201-399 443-737 749-1043 473-473 1035-811 1681-1013 291-90 563-143 907-174 168-15 680-6 847 15 929 119 1739 513 2387 1160 305 305 511 575 706 926 351 631 534 1294 555 2011 20 696-168 1439-571 2249-92 183-117 230-204 385-169 298-462 749-629 967-23 31-43 63-43 72 0 8-4 18-10 21-5 3-10 13-10 21 0 9-13 27-30 41-16 13-30 35-30 47 0 15-68 89-220 241-121 121-220 225-220 230 0 6-201 211-448 458-351 351-452 447-472 447-17 0-46-21-93-67-61-59-68-71-64-98 9-57-173-346-488-775-381-518-525-764-525-896 0-55 22-100 113-229 83-118 145-234 177-334 21-67 22-82 16-214-9-191-78-821-102-942-13-63 15-7 61 125 123 350 204 515 287 585 106 90 241 85 295-11 12-21 30-70 39-109 21-87 69-222 123-342 23-51 60-135 82-185 80-180 129-358 129-467-1-152-103-381-202-449-54-37-161-76-253-91-150-26-270-63-510-159-295-117-379-145-500-168-102-18-139-17-455 22-216 27-216 27-451-6-219-31-312-35-411-16-112 21-304 83-493 158-256 102-305 118-472 153-88 19-187 44-220 56-131 48-206 139-268 324-23 66-27 98-27 180 0 156 30 254 187 609 64 146 107 258 127 335 36 140 60 187 110 212 97 49 222-2 305-126 62-93 137-269 233-543 23-67 45-121 47-118 3 2 0 35-6 73-26 171-81 675-91 840-10 159-9 190 5 244 24 94 95 237 178 357 108 157 120 183 115 258-8 130-151 367-543 904-277 379-371 523-471 723-175 349-214 633-154 1127 36 290 42 423 36 715-11 452-6 497 164 1370 83 428 80 384 29 436-73 75-1029 731-1061 728-7-1-87-51-178-111z" /></svg>